<?xml version="1.0" encoding="iso-8859-1"?>
<!-- Uploaded to: SVG Repo, www.svgrepo.com, Generator: SVG Repo Mixer Tools -->
<svg fill="#000000" height="800px" width="800px" version="1.1" id="Layer_1" xmlns="http://www.w3.org/2000/svg" xmlns:xlink="http://www.w3.org/1999/xlink" 
	 viewBox="0 0 512 512" xml:space="preserve">
<g>
	<g>
		<path d="M229.417,173.352h-13.279c-43.872,0-79.57,35.688-79.57,79.56c0,5.636,4.565,10.191,10.191,10.191
			s10.191-4.555,10.191-10.191c0-32.631,26.557-59.178,59.189-59.178h13.279c5.625,0,10.191-4.565,10.191-10.191
			C239.608,177.907,235.042,173.352,229.417,173.352z"/>
	</g>
</g>
<g>
	<g>
		<path d="M395.763,211.588c-7.021,0-12.708,5.687-12.708,12.698c0,7.021,5.687,12.698,12.708,12.698
			c7.011,0,12.698-5.676,12.698-12.698C408.461,217.275,402.774,211.588,395.763,211.588z"/>
	</g>
</g>
<g>
	<g>
		<path d="M511.256,323.565c-15.429-54.348-48.621-103.478-93.471-138.351c-6.298-4.892-12.871-9.529-19.587-13.849
			c0.01-0.306,0.031-0.601,0.041-0.907c0.245-10.874-3.985-20.168-11.587-25.498c-7.602-5.32-17.773-6.115-27.913-2.181
			c-2.823,1.101-5.585,2.538-8.244,4.27c-29.747-11.567-61.115-17.661-93.308-18.099c-0.061,0-0.122-0.01-0.183-0.01l-40.855-0.041
			c-16.203,0-31.683,3.118-45.879,8.795c-8.56,3.261-17.589,4.943-26.873,4.943H105.17C47.184,142.637,0,189.81,0,247.796v29.289
			c0,13.248,10.782,24.03,24.03,24.03c12.046,0,22.053-8.907,23.775-20.484c0.448-1.6,0.642-2.303,0.642-3.546
			c0-17.416,14.176-31.592,31.582-31.592H92.35c-0.143,2.456-0.224,22.012-0.224,22.012c0,0.795,0.092,1.59,0.275,2.364
			c3.811,15.979,7.154,32.743,9.946,49.823c2.853,17.569,5.167,35.79,6.889,54.164c0.489,5.238,4.881,9.243,10.14,9.243h60.248
			c5.625,0,10.191-4.555,10.191-10.191c0-5.625-4.565-10.191-10.191-10.191h-6.899l2.079-26.69
			c14.308-4.749,27.016-13.656,36.392-25.64h69.92c9.793,16.02,17.426,34.333,22.247,53.808c0.897,3.659,1.682,7.236,2.334,10.619
			c0.907,4.81,5.116,8.285,10.007,8.285h54.389c5.636,0,10.191-4.566,10.191-10.191s-4.555-10.191-10.191-10.191h-5.595
			c1.396-9.263,2.13-18.833,2.13-28.606c0-17.009-2.16-34.364-6.41-51.576c-0.234-0.917-0.469-1.834-0.713-2.752h15.714
			c38.409,0,72.865,21.391,89.965,55.836c0.153,0.316,0.316,0.632,0.499,0.938c3.098,5.228,8.795,8.469,14.868,8.469h14.899
			c9.121,0,16.55-7.429,16.55-16.55C512,326.816,511.745,325.165,511.256,323.565z M95.264,225.111H80.029
			c-0.061,0-0.122,0.01-0.183,0.01c-27.526,0.092-50.068,21.707-51.678,48.855c-0.316,0.978-0.479,2.018-0.479,3.108
			c0,2.008-1.641,3.648-3.659,3.648c-2.008,0-3.648-1.641-3.648-3.648v-28.983c0-0.01,0-0.01,0-0.01v-0.296
			c0-46.746,38.032-84.778,84.788-84.778h25.62C113.424,179.517,100.818,200.979,95.264,225.111z M482.477,324.646
			c-9.855-18.986-24.56-35.036-42.659-46.521c-19.302-12.249-41.64-18.721-64.6-18.721h-29.299c-1.06,0-2.14,0.153-3.2,0.51
			c-5.35,1.753-8.265,7.511-6.502,12.861c1.559,4.749,2.976,9.692,4.209,14.665c3.862,15.602,5.819,31.306,5.819,46.674
			c0,9.824-0.805,19.414-2.374,28.606h-19.903c-0.265-1.121-0.53-2.262-0.815-3.404c-8.886-35.892-26.517-68.462-49.64-91.708
			c-3.974-3.995-10.425-4.005-14.41-0.041c-3.995,3.974-4.005,10.425-0.041,14.42c2.538,2.548,4.994,5.228,7.378,8.02H222.63
			c3.73-9.946,5.401-20.637,4.79-31.408c-0.316-5.625-5.095-9.906-10.751-9.6c-5.625,0.326-9.916,5.136-9.59,10.762
			c1.58,27.791-16.937,52.351-44.045,58.424c-4.29,0.927-7.633,4.566-7.99,9.162l-2.772,35.372h-23.663
			c-1.63-15.694-3.699-31.225-6.145-46.297c-2.802-17.161-6.155-34.007-9.956-50.109v-13.401
			c0-57.14,46.491-103.631,103.621-103.631l40.611,0.041c0.051,0,0.092,0.01,0.133,0.01c26.751,0.357,52.86,4.943,77.828,13.625
			c-2.395,4.484-1.121,10.14,3.139,13.136c4.617,3.22,10.965,2.109,14.196-2.507c3.872-5.523,9.019-9.834,14.094-11.811
			c1.743-0.673,6.084-2.038,8.836-0.122c2.741,1.926,2.935,6.481,2.894,8.346c-0.122,5.452-2.415,11.75-6.288,17.274
			c-3.231,4.616-2.12,10.965,2.497,14.196c1.773,1.253,3.811,1.845,5.839,1.845c3.21,0,6.369-1.508,8.346-4.341
			c1.58-2.252,2.986-4.576,4.209-6.96c4.372,2.966,8.662,6.074,12.81,9.294c40.213,31.266,70.276,74.923,85.053,123.34H482.477z"/>
	</g>
</g>
<g>
	<g>
		<path d="M229.417,173.352h-13.279c-43.872,0-79.57,35.688-79.57,79.56c0,5.636,4.565,10.191,10.191,10.191
			s10.191-4.555,10.191-10.191c0-32.631,26.557-59.178,59.189-59.178h13.279c5.625,0,10.191-4.565,10.191-10.191
			C239.608,177.907,235.042,173.352,229.417,173.352z"/>
	</g>
</g>
<g id="SVGCleanerId_1">
	<g>
		<path d="M395.763,211.588c-7.021,0-12.708,5.687-12.708,12.698c0,7.021,5.687,12.698,12.708,12.698
			c7.011,0,12.698-5.676,12.698-12.698C408.461,217.275,402.774,211.588,395.763,211.588z"/>
	</g>
</g>
<g>
	<g>
		<path d="M395.763,211.588c-7.021,0-12.708,5.687-12.708,12.698c0,7.021,5.687,12.698,12.708,12.698
			c7.011,0,12.698-5.676,12.698-12.698C408.461,217.275,402.774,211.588,395.763,211.588z"/>
	</g>
</g>
<g>
	<g>
		<path d="M229.417,173.352h-13.279c-43.872,0-79.57,35.688-79.57,79.56c0,5.636,4.565,10.191,10.191,10.191
			s10.191-4.555,10.191-10.191c0-32.631,26.557-59.178,59.189-59.178h13.279c5.625,0,10.191-4.565,10.191-10.191
			C239.608,177.907,235.042,173.352,229.417,173.352z"/>
	</g>
</g>
</svg>