<?xml version="1.0" encoding="iso-8859-1"?>
<!-- Uploaded to: SVG Repo, www.svgrepo.com, Generator: SVG Repo Mixer Tools -->
<svg fill="#000000" height="800px" width="800px" version="1.1" id="Layer_1" xmlns="http://www.w3.org/2000/svg" xmlns:xlink="http://www.w3.org/1999/xlink" 
	 viewBox="0 0 512 512" xml:space="preserve">
<g>
	<g>
		<path d="M408.849,432.3c1.398-7.966,2.11-16.095,2.11-24.273v-16.145c0-15.108-12.286-27.407-27.382-27.407
			c-15.108,0-27.395,12.299-27.395,27.407v16.145c0,5.819-1.586,11.45-4.52,16.357h-47.423c-7.904,0-14.322-6.43-14.322-14.322
			v-66.115c5.656-56.138,36.098-108.93,83.633-144.941l0.075-0.062c0.187-0.125,0.375-0.262,0.562-0.412
			c0.225-0.162,0.437-0.325,0.637-0.512c18.442-14.272,30.279-35.698,32.539-58.91c2.21-22.6-4.52-44.701-18.942-62.232
			C374,59.347,353.622,48.472,331.022,46.274c-2.759-0.262-12.249-0.4-12.249-0.4v-4.52c0-22.8-18.542-41.355-41.342-41.355h-62.644
			c-22.738,0-41.242,18.442-41.342,41.155c0,0.075-0.012,0.137-0.012,0.2v4.52c0,0-9.477,0.137-12.249,0.4
			c-22.6,2.198-42.978,13.073-57.399,30.604c-14.422,17.531-21.152,39.631-18.954,62.219c2.26,23.212,14.109,44.651,32.539,58.923
			c0.212,0.175,0.424,0.35,0.662,0.524c0.187,0.137,0.375,0.275,0.549,0.412l0.087,0.05c47.523,36.023,77.977,88.815,83.633,144.941
			v66.115c0,4.857,0.35,9.627,1.011,14.309h-72.77c-24.161,0-43.814,19.653-43.814,43.814S106.381,512,130.542,512h253.222
			c24.161,0,43.814-19.653,43.814-43.814C427.578,453.352,420.161,440.229,408.849,432.3z M378.657,408.027v-16.145
			c0-2.722,2.21-4.932,4.92-4.932s4.907,2.21,4.907,4.932v16.145c0,5.556-0.4,11.075-1.161,16.519
			c-1.174-0.1-11.188-0.162-11.188-0.162C377.783,419.14,378.657,413.633,378.657,408.027z M317.686,70.847h5.044
			c1.923,0,3.908,0.1,5.869,0.287c15.957,1.548,30.354,9.227,40.543,21.601c10.176,12.386,14.934,27.994,13.373,43.952
			c-1.611,16.557-10.139,31.828-23.374,41.904c-0.1,0.075-0.2,0.15-0.3,0.225l-0.15,0.112c-0.037,0.025-0.075,0.062-0.125,0.087
			c-29.068,22.001-52.417,49.695-68.65,80.599V116.297C304.276,105.409,314.465,89.314,317.686,70.847z M202.301,259.615
			c-16.232-30.891-39.594-58.598-68.662-80.599c-0.05-0.037-0.1-0.062-0.15-0.1l-0.125-0.1c-0.1-0.075-0.2-0.15-0.3-0.225
			c-13.248-10.076-21.764-25.347-23.374-41.916c-1.561-15.945,3.196-31.553,13.373-43.939
			c10.189-12.374,24.585-20.053,40.543-21.601c1.973-0.187,3.958-0.3,5.869-0.287h5.057c3.221,18.467,13.41,34.562,27.769,45.45
			V259.615z M130.542,487.027c-10.389,0-18.842-8.453-18.842-18.842c0-10.389,8.453-18.842,18.842-18.842h79.638
			c6.106,14.584,15.52,27.457,27.295,37.684H130.542z M227.273,410.162h37.609V454.8c0,8.703,1.973,16.944,5.469,24.348
			C244.891,466.6,227.311,440.404,227.273,410.162z M264.944,184.647v31.403h-37.671v-31.403H264.944z M227.273,159.675v-31.141
			c6.006,1.623,12.324,2.497,18.829,2.497c6.518,0,12.836-0.874,18.842-2.497v31.141H227.273z M264.944,241.023v31.416h-37.671
			v-31.416H264.944z M264.944,297.411v31.403h-37.671v-31.403H264.944z M264.944,353.786v31.403h-37.671v-31.403H264.944z
			 M246.103,106.058c-26.296,0-47.698-21.401-47.698-47.698V41.355c0-9.028,7.354-16.382,16.382-16.382h62.644
			c9.028,0,16.37,7.354,16.37,16.382v17.006C293.8,84.657,272.411,106.058,246.103,106.058z M383.764,487.027h-61.795
			c-17.718-0.062-32.115-14.497-32.115-32.227v-8.141c0.125,0.05,0.262,0.087,0.387,0.112c4.358,1.661,9.065,2.585,13.997,2.585
			h79.525c10.389,0,18.842,8.441,18.842,18.829C402.606,478.574,394.152,487.027,383.764,487.027z"/>
	</g>
</g>
<g>
	<g>
		<path d="M219.644,37.371c-6.905,0-12.486,5.594-12.486,12.486s5.581,12.486,12.486,12.486c6.892,0,12.486-5.594,12.486-12.486
			S226.537,37.371,219.644,37.371z"/>
	</g>
</g>
<g>
	<g>
		<path d="M272.574,37.371c-6.892,0-12.486,5.594-12.486,12.486s5.594,12.486,12.486,12.486s12.486-5.594,12.486-12.486
			S279.466,37.371,272.574,37.371z"/>
	</g>
</g>
</svg>