<?xml version="1.0" encoding="iso-8859-1"?>
<!-- Uploaded to: SVG Repo, www.svgrepo.com, Generator: SVG Repo Mixer Tools -->
<svg fill="#000000" height="800px" width="800px" version="1.1" id="Layer_1" xmlns="http://www.w3.org/2000/svg" xmlns:xlink="http://www.w3.org/1999/xlink" 
	 viewBox="0 0 512 512" xml:space="preserve">
<g>
	<g>
		<path d="M465.779,368.64h-64.087c12.843-29.264,19.37-58.482,19.37-87.081c0-44.811-10.174-87.746-29.404-124.469
			c0.653-5.513,0.991-11.072,0.991-16.573c0-29.416-8.892-57.34-25.768-81.126l30.814-16.351c3.252-1.725,5.279-5.116,5.256-8.811
			c-0.023-3.683-2.086-7.051-5.373-8.741c-24.171-12.447-51.897-15.081-77.571-7.983c-0.28-0.186-0.571-0.361-0.874-0.536
			C298.69,5.874,275.521,0,252.142,0c-23.402,0-46.559,5.874-66.978,16.98c-0.303,0.163-0.583,0.338-0.862,0.524
			c-25.675-7.098-53.4-4.464-77.572,7.983c-3.287,1.69-5.349,5.058-5.373,8.741c-0.023,3.694,2.005,7.086,5.256,8.811l30.803,16.351
			c-16.887,23.775-25.779,51.699-25.779,81.126c0,5.501,0.338,11.048,0.991,16.549c-19.241,36.735-29.427,79.669-29.427,124.492
			c0,28.6,6.538,57.817,19.381,87.081H46.221c-6.445,0-11.654,5.209-11.654,11.654v53.389c0,6.433,5.209,11.654,11.654,11.654
			h92.874c3.997,2.622,8.764,4.161,13.892,4.161c0.769,0,1.538-0.047,2.296-0.117c0.408,0.455,1.224,1.364,1.224,1.364
			c30.884,33.949,66.313,57.852,90.24,60.894c1.876,0.233,3.683,0.361,5.396,0.361c1.702,0,3.52-0.128,5.384-0.361
			c24.905-3.182,60.521-27.621,92.011-62.875c1.935,0.478,3.939,0.734,6.002,0.734c5.128,0,9.895-1.538,13.892-4.161h96.347
			c6.445,0,11.654-5.221,11.654-11.654v-53.389C477.433,373.849,472.224,368.64,465.779,368.64z M348.582,33.436
			c6.853,0,13.694,0.804,20.407,2.412L266.932,90.007c7.401-19.708,21.794-36.327,40.79-46.408
			C320.484,36.828,334.527,33.436,348.582,33.436z M299.401,115.332c5.349,0,9.685-4.335,9.685-9.685s-4.335-9.685-9.685-9.685
			c-0.594,0-1.189,0.07-1.76,0.175l29.101-15.442c10.163,6.247,16.573,17.458,16.573,29.521c0,15.151-9.685,28.413-24.148,32.994
			c-6.69,2.133-14.207,2.144-20.955-0.012c-5.256-1.667-10.104-4.627-14.02-8.554c-1.189-1.2-2.284-2.482-3.263-3.799
			c-4.464-6.002-6.818-13.135-6.818-20.628c0-0.548,0.035-1.084,0.058-1.62l18.332-9.731c-1.713,1.748-2.774,4.137-2.774,6.783
			C289.728,110.996,294.052,115.332,299.401,115.332z M252.142,23.309c13.449,0,26.805,2.331,39.38,6.806
			c-17.144,10.804-30.721,26.164-39.368,44.123c-8.648-17.959-22.225-33.32-39.38-44.135
			C225.337,25.64,238.693,23.309,252.142,23.309z M264.648,144.083l-12.493,24.952l-12.575-25.104
			c0.07-0.082,9.37-16.13,10.757-25.15c0.594,0.105,2.914,0.117,3.45,0.035C255.161,127.674,264.461,143.838,264.648,144.083z
			 M135.331,35.849c20.453-4.918,42.282-2.319,61.255,7.75c18.997,10.081,33.39,26.7,40.79,46.408L135.331,35.849z M204.907,115.332
			c5.349,0,9.685-4.335,9.685-9.685c0-2.646-1.072-5.035-2.785-6.783l18.134,9.627c0.035,0.571,0.07,1.142,0.07,1.713
			c0,7.692-2.459,14.953-7.109,21.001c-0.047,0.07-0.105,0.151-0.163,0.221c-0.816,1.061-1.702,2.074-2.692,3.088
			c-3.974,4.009-8.869,7.016-14.172,8.694c-6.678,2.133-14.323,2.121-20.978,0c-14.417-4.604-24.113-17.866-24.113-33.005
			c0-12.097,6.445-23.332,16.666-29.567l29.217,15.5c-0.571-0.105-1.154-0.175-1.76-0.175c-5.349,0-9.673,4.335-9.673,9.685
			S199.558,115.332,204.907,115.332z M127.639,422.028H57.876v-30.08h69.763V422.028z M158.523,424.138
			c0,3.053-2.482,5.547-5.536,5.547c-3.053,0-5.536-2.494-5.536-5.547v-34.299c0-3.053,2.482-5.536,5.536-5.536
			c3.053,0,5.536,2.482,5.536,5.536V424.138z M166.867,368.639L166.867,368.639c-3.997-2.622-8.764-4.149-13.88-4.149
			s-9.895,1.527-13.88,4.149h-10.85c-14.428-29.474-21.747-58.738-21.747-87.081c0-28.577,4.499-56.256,13.111-81.709
			c49.286,28.623,76.301,85.31,66.22,141.379c-1.364,7.657-2.296,15.465-2.762,23.274c-4.813,0.151-9.3,1.655-13.076,4.137H166.867z
			 M178.335,424.138v-34.299c0-3.053,2.482-5.536,5.547-5.536c3.053,0,5.536,2.482,5.536,5.536v34.299
			c0,3.053-2.482,5.547-5.536,5.547C180.818,429.685,178.335,427.191,178.335,424.138z M187.542,449.229
			c2.82-0.419,5.489-1.294,7.925-2.552c0.07,0.163,0.128,0.326,0.198,0.49c2.098,5.361,4.44,10.501,6.981,15.442
			C197.74,458.611,192.682,454.148,187.542,449.229z M128.291,177.962c2.051-4.475,4.242-8.857,6.585-13.146
			c1.096-2.028,1.527-4.231,1.375-6.375c0-0.245-1.305-12.284-1.305-17.924c0-11.713,1.702-23.122,4.988-34.019
			c-0.082,1.224-0.128,2.459-0.128,3.706c0,24.311,15.559,45.604,38.716,52.992c5.396,1.713,11.072,2.587,16.875,2.587
			c5.781,0,11.456-0.874,16.829-2.587c3.846-1.212,7.564-2.89,11.072-4.941l12.237,24.439c3.17,6.328,9.533,10.268,16.619,10.268
			c3.543,0,6.899-0.991,9.778-2.762c2.879-1.771,5.256-4.335,6.841-7.505l12.19-24.334c3.461,1.981,7.109,3.625,10.885,4.825
			c5.419,1.736,11.083,2.611,16.864,2.611c5.769,0,11.433-0.874,16.817-2.599c23.192-7.354,38.762-28.646,38.762-52.981
			c0-1.503-0.058-2.995-0.186-4.475c3.45,11.13,5.233,22.796,5.233,34.777c0,5.664-0.42,11.41-1.235,17.062
			c-0.012,0.105-0.023,0.186-0.035,0.268c-0.28,2.331,0.128,4.755,1.329,6.969c2.343,4.289,4.534,8.682,6.596,13.169
			c-1.119,0.606-2.238,1.212-3.321,1.853c-57.887,33.739-88.9,100.251-77.175,165.492c1.142,6.387,1.923,12.913,2.366,19.486
			c-1.34-0.21-2.704-0.326-4.102-0.326c-5.116,0-9.883,1.527-13.88,4.149h-51.233c-3.986-2.622-8.764-4.149-13.88-4.149
			c-2.949,0-5.781,0.501-8.414,1.434c0.408-6.911,1.224-13.81,2.436-20.582C220.804,278.47,187.904,210.874,128.291,177.962z
			 M268.412,391.948v30.08h-28.297v-30.08H268.412z M220.303,424.138c0,3.053-2.482,5.547-5.536,5.547
			c-3.053,0-5.536-2.494-5.536-5.547v-34.299c0-3.053,2.482-5.536,5.536-5.536c3.053,0,5.536,2.482,5.536,5.536V424.138z
			 M252.142,488.365c-12.237-9.86-22.609-23.46-30.465-39.835c2.506-0.711,4.848-1.795,6.981-3.193h51.221
			c1.061,0.699,2.191,1.317,3.356,1.853C275.323,464.031,264.589,478.284,252.142,488.365z M299.296,424.138
			c0,3.053-2.482,5.547-5.536,5.547c-3.053,0-5.536-2.494-5.536-5.547v-34.299c0-3.053,2.482-5.536,5.536-5.536
			c3.053,0,5.536,2.482,5.536,5.536V424.138z M301.708,462.527c2.797-5.466,5.326-11.211,7.599-17.19h1.457
			c2.063,1.352,4.335,2.412,6.748,3.123C312.162,453.612,306.871,458.308,301.708,462.527z M330.192,424.138
			c0,3.053-2.482,5.547-5.536,5.547c-3.053,0-5.548-2.494-5.548-5.547v-34.299c0-3.053,2.494-5.536,5.548-5.536
			c3.053,0,5.536,2.482,5.536,5.536V424.138z M361.087,424.138c0,3.053-2.482,5.547-5.547,5.547c-3.053,0-5.536-2.494-5.536-5.547
			v-34.299c0-3.053,2.482-5.536,5.536-5.536c3.065,0,5.547,2.482,5.547,5.536V424.138z M369.42,368.64
			c-3.986-2.622-8.752-4.149-13.88-4.149c-5.116,0-9.883,1.527-13.869,4.149h-3.135c-3.997-2.622-8.764-4.149-13.88-4.149
			c-1.165,0-2.319,0.082-3.45,0.233c-0.466-7.925-1.387-15.803-2.762-23.507c-10.011-55.65,16.503-112.406,65.987-141.251
			c0.07-0.047,0.14-0.082,0.221-0.128c8.613,25.453,13.099,53.144,13.099,81.72c0,28.355-7.307,57.619-21.735,87.081H369.42z
			 M454.124,422.028H380.9v-30.08h73.224V422.028z"/>
	</g>
</g>
</svg>