<?xml version="1.0" encoding="iso-8859-1"?>
<!-- Uploaded to: SVG Repo, www.svgrepo.com, Generator: SVG Repo Mixer Tools -->
<svg fill="#000000" height="800px" width="800px" version="1.1" id="Layer_1" xmlns="http://www.w3.org/2000/svg" xmlns:xlink="http://www.w3.org/1999/xlink" 
	 viewBox="0 0 512 512" xml:space="preserve">
<g>
	<g>
		<path d="M206.162,149.052l-21.734-2.86c-5.827-0.776-11.165,3.318-11.941,9.145c-0.766,5.827,3.328,11.165,9.155,11.93
			l21.734,2.871c0.478,0.064,0.946,0.096,1.404,0.096c5.253,0,9.825-3.892,10.527-9.24
			C216.083,155.166,211.979,149.828,206.162,149.052z"/>
	</g>
</g>
<g>
	<g>
		<path d="M206.162,184.566l-21.734-2.871c-5.827-0.755-11.165,3.328-11.941,9.155c-0.766,5.816,3.328,11.165,9.155,11.93
			l21.734,2.871c0.478,0.064,0.946,0.096,1.404,0.096c5.253,0,9.825-3.892,10.527-9.251
			C216.083,190.68,211.979,185.332,206.162,184.566z"/>
	</g>
</g>
<g>
	<g>
		<path d="M206.162,220.081l-21.734-2.871c-5.827-0.766-11.165,3.328-11.941,9.145c-0.766,5.827,3.328,11.165,9.155,11.941
			l21.734,2.871c0.478,0.064,0.946,0.085,1.404,0.085c5.253,0,9.825-3.892,10.527-9.24
			C216.083,226.195,211.979,220.847,206.162,220.081z"/>
	</g>
</g>
<g>
	<g>
		<path d="M339.513,155.336c-0.776-5.816-6.114-9.921-11.941-9.145l-21.734,2.86c-5.816,0.776-9.921,6.114-9.144,11.941
			c0.702,5.349,5.274,9.24,10.527,9.24c0.457,0,0.925-0.032,1.404-0.096l21.734-2.871
			C336.184,166.501,340.278,161.163,339.513,155.336z"/>
	</g>
</g>
<g>
	<g>
		<path d="M339.513,190.851c-0.776-5.827-6.114-9.931-11.941-9.155l-21.734,2.871c-5.816,0.766-9.921,6.114-9.144,11.93
			c0.702,5.359,5.274,9.251,10.527,9.251c0.457,0,0.925-0.032,1.404-0.096l21.734-2.871
			C336.184,202.015,340.278,196.667,339.513,190.851z"/>
	</g>
</g>
<g>
	<g>
		<path d="M339.513,226.355c-0.776-5.816-6.114-9.921-11.941-9.145l-21.734,2.871c-5.816,0.766-9.921,6.114-9.144,11.93
			c0.702,5.348,5.274,9.24,10.527,9.24c0.457,0,0.925-0.021,1.404-0.085l21.734-2.871
			C336.184,237.519,340.278,232.182,339.513,226.355z"/>
	</g>
</g>
<g>
	<g>
		<path d="M511.1,164.884c-2.063-12.249-7.518-23.414-15.79-32.304c-8.932-9.602-20.735-15.992-34.132-18.48l-72.348-13.451
			c-8.709-1.616-17.3-3.924-25.753-6.922V54.98c0-5.869-4.764-10.633-10.633-10.633c-5.87,0-10.633,4.764-10.633,10.633v29.656
			c-7.443-3.753-14.738-8.049-21.872-12.898C301.031,58.904,278.914,52.12,256,52.12c-22.914,0-45.031,6.784-63.937,19.618
			c-7.135,4.849-14.429,9.145-21.872,12.898V54.98c0-5.869-4.764-10.633-10.633-10.633s-10.633,4.764-10.633,10.633v38.747
			c-8.453,2.999-17.045,5.306-25.753,6.922L50.823,114.1c-13.398,2.488-25.201,8.879-34.132,18.48
			C8.417,141.47,2.963,152.635,0.9,164.884c-2.063,12.239-0.564,24.584,4.338,35.695c5.295,11.994,14.355,21.894,26.2,28.635
			l141.198,80.44c22.276,12.675,47.222,20.107,72.731,21.724v94.901c0,11.09-9.017,20.107-20.107,20.107
			c-5.88,0-10.633,4.764-10.633,10.633c0,5.869,4.753,10.633,10.633,10.633c22.808,0,41.374-18.555,41.374-41.374v-94.901
			c25.509-1.616,50.454-9.049,72.731-21.734l141.198-80.419c11.845-6.752,20.905-16.651,26.2-28.646
			C511.663,189.468,513.163,177.123,511.1,164.884z M487.303,191.988c-3.435,7.794-9.41,14.28-17.268,18.757l-141.187,80.418
			c-22.159,12.622-47.349,19.289-72.848,19.289c-25.498,0-50.688-6.667-72.837-19.278l-141.208-80.44
			c-7.847-4.466-13.823-10.952-17.258-18.746c-3.222-7.284-4.2-15.439-2.828-23.574c1.372-8.134,4.966-15.514,10.389-21.351
			c5.806-6.231,13.568-10.399,22.457-12.058l72.348-13.44c26.934-5.019,52.825-15.865,76.942-32.229
			c15.365-10.431,33.346-15.95,51.996-15.95c18.651,0,36.631,5.519,51.996,15.939c24.116,16.375,50.008,27.221,76.952,32.24
			l72.337,13.44c8.889,1.659,16.651,5.827,22.457,12.058c5.423,5.838,9.017,13.217,10.389,21.351
			C491.503,176.549,490.525,184.705,487.303,191.988z"/>
	</g>
</g>
</svg>