<svg width="166" height="106" viewBox="0 0 166 106" fill="none" xmlns="http://www.w3.org/2000/svg">
<path d="M41.6 60V23.7H34.75V19.5H53.9V23.7H47.25V60H41.6ZM63.0543 60L56.4543 19.5H61.1543L65.5043 48.6L70.9543 19.65H74.9543L80.4543 48.75L84.7043 19.5H89.3043L82.8043 60H78.7043L73.0543 30L67.3543 60H63.0543ZM94.5301 60V19.5H100.08V60H94.5301ZM106.632 60V19.5H110.482L121.982 46.4V19.5H126.682V60H123.082L111.432 32.35V60H106.632Z" fill="white"/>
<path d="M25.3 105.45C22.4333 105.45 20.2 104.85 18.6 103.65C17.0333 102.45 15.9333 100.833 15.3 98.8C14.7 96.7667 14.4 94.5 14.4 92V77.7C14.4 74.9667 14.7 72.5833 15.3 70.55C15.9333 68.5167 17.0333 66.95 18.6 65.85C20.2 64.7167 22.4333 64.15 25.3 64.15C27.8333 64.15 29.8333 64.6167 31.3 65.55C32.8 66.4833 33.8667 67.8167 34.5 69.55C35.1667 71.2833 35.5 73.3667 35.5 75.8V79H30.15V76.15C30.15 74.65 30.0667 73.3333 29.9 72.2C29.7667 71.0333 29.3667 70.1333 28.7 69.5C28.0333 68.8667 26.9167 68.55 25.35 68.55C23.75 68.55 22.5833 68.9 21.85 69.6C21.1167 70.2667 20.6333 71.2333 20.4 72.5C20.2 73.7333 20.1 75.1833 20.1 76.85V92.9C20.1 94.9333 20.2667 96.55 20.6 97.75C20.9333 98.9167 21.4833 99.75 22.25 100.25C23.0167 100.75 24.05 101 25.35 101C26.8833 101 27.9833 100.667 28.65 100C29.3167 99.3 29.7333 98.35 29.9 97.15C30.0667 95.95 30.15 94.55 30.15 92.95V89.95H35.5V92.95C35.5 95.4167 35.2 97.6 34.6 99.5C34 101.367 32.9667 102.833 31.5 103.9C30.0333 104.933 27.9667 105.45 25.3 105.45ZM51.2324 105.45C48.4991 105.45 46.3158 104.917 44.6824 103.85C43.0491 102.783 41.8824 101.267 41.1824 99.3C40.4824 97.3 40.1324 94.9667 40.1324 92.3V76.95C40.1324 74.2833 40.4824 72 41.1824 70.1C41.9158 68.1667 43.0824 66.7 44.6824 65.7C46.3158 64.6667 48.4991 64.15 51.2324 64.15C53.9658 64.15 56.1324 64.6667 57.7324 65.7C59.3324 66.7333 60.4824 68.2 61.1824 70.1C61.9158 72 62.2824 74.2833 62.2824 76.95V92.35C62.2824 94.9833 61.9158 97.2833 61.1824 99.25C60.4824 101.217 59.3324 102.75 57.7324 103.85C56.1324 104.917 53.9658 105.45 51.2324 105.45ZM51.2324 101C52.7324 101 53.8658 100.7 54.6324 100.1C55.3991 99.4667 55.9158 98.6 56.1824 97.5C56.4491 96.3667 56.5824 95.05 56.5824 93.55V75.8C56.5824 74.3 56.4491 73.0167 56.1824 71.95C55.9158 70.85 55.3991 70.0167 54.6324 69.45C53.8658 68.85 52.7324 68.55 51.2324 68.55C49.7324 68.55 48.5824 68.85 47.7824 69.45C47.0158 70.0167 46.4991 70.85 46.2324 71.95C45.9658 73.0167 45.8324 74.3 45.8324 75.8V93.55C45.8324 95.05 45.9658 96.3667 46.2324 97.5C46.4991 98.6 47.0158 99.4667 47.7824 100.1C48.5824 100.7 49.7324 101 51.2324 101ZM67.8355 105V64.5H76.6355C79.6355 64.5 82.0022 64.9667 83.7355 65.9C85.5022 66.8 86.7522 68.1667 87.4855 70C88.2522 71.8333 88.6355 74.1167 88.6355 76.85V91.75C88.6355 94.6167 88.2522 97.0333 87.4855 99C86.7522 100.967 85.5355 102.467 83.8355 103.5C82.1689 104.5 79.9189 105 77.0855 105H67.8355ZM73.4855 100.95H76.6855C78.7522 100.95 80.2189 100.55 81.0855 99.75C81.9522 98.95 82.4689 97.7833 82.6355 96.25C82.8355 94.7167 82.9355 92.8667 82.9355 90.7V77.55C82.9355 75.45 82.8022 73.75 82.5355 72.45C82.2689 71.15 81.6855 70.2 80.7855 69.6C79.8855 69 78.4689 68.7 76.5355 68.7H73.4855V100.95ZM94.5027 105V64.5H100.053V105H94.5027ZM106.605 105V64.5H110.455L121.955 91.4V64.5H126.655V105H123.055L111.405 77.35V105H106.605ZM142.671 105.5C140.138 105.5 138.104 104.967 136.571 103.9C135.071 102.8 133.971 101.217 133.271 99.15C132.604 97.0833 132.271 94.6 132.271 91.7V78.15C132.271 75.1833 132.571 72.6667 133.171 70.6C133.804 68.5 134.904 66.9 136.471 65.8C138.071 64.7 140.288 64.15 143.121 64.15C145.654 64.15 147.688 64.5833 149.221 65.45C150.788 66.2833 151.921 67.5833 152.621 69.35C153.321 71.0833 153.671 73.2833 153.671 75.95V77.45H148.371V76.2C148.371 74.4333 148.254 73 148.021 71.9C147.788 70.7667 147.304 69.9333 146.571 69.4C145.871 68.8333 144.754 68.55 143.221 68.55C141.554 68.55 140.338 68.9333 139.571 69.7C138.838 70.4667 138.371 71.5167 138.171 72.85C138.004 74.15 137.921 75.6333 137.921 77.3V92.3C137.921 94.2333 138.054 95.85 138.321 97.15C138.621 98.45 139.171 99.4167 139.971 100.05C140.771 100.683 141.904 101 143.371 101C144.838 101 145.971 100.65 146.771 99.95C147.571 99.25 148.121 98.2167 148.421 96.85C148.721 95.4833 148.871 93.7833 148.871 91.75V88.95H143.721V84.95H153.971V105H150.421L149.871 100.35C149.338 101.85 148.504 103.083 147.371 104.05C146.238 105.017 144.671 105.5 142.671 105.5Z" fill="white"/>
<line x1="1.5" y1="105.003" x2="1.5" y2="15.9972" stroke="white" stroke-width="2"/>
<line x1="165" y1="105.006" x2="165" y2="16" stroke="#1976D2" stroke-width="2"/>
</svg>
