<svg width="146" height="106" viewBox="0 0 146 106" fill="none" xmlns="http://www.w3.org/2000/svg">
<path d="M30.1 60V23.7H23.25V19.5H42.4V23.7H35.75V60H30.1ZM51.5543 60L44.9543 19.5H49.6543L54.0043 48.6L59.4543 19.65H63.4543L68.9543 48.75L73.2043 19.5H77.8043L71.3043 60H67.2043L61.5543 30L55.8543 60H51.5543ZM83.0301 60V19.5H88.5801V60H83.0301ZM95.1324 60V19.5H98.9824L110.482 46.4V19.5H115.182V60H111.582L99.9324 32.35V60H95.1324Z" fill="white"/>
<path d="M13.8 105.45C10.9333 105.45 8.7 104.85 7.1 103.65C5.53333 102.45 4.43333 100.833 3.8 98.8C3.2 96.7667 2.9 94.5 2.9 92V77.7C2.9 74.9667 3.2 72.5833 3.8 70.55C4.43333 68.5167 5.53333 66.95 7.1 65.85C8.7 64.7167 10.9333 64.15 13.8 64.15C16.3333 64.15 18.3333 64.6167 19.8 65.55C21.3 66.4833 22.3667 67.8167 23 69.55C23.6667 71.2833 24 73.3667 24 75.8V79H18.65V76.15C18.65 74.65 18.5667 73.3333 18.4 72.2C18.2667 71.0333 17.8667 70.1333 17.2 69.5C16.5333 68.8667 15.4167 68.55 13.85 68.55C12.25 68.55 11.0833 68.9 10.35 69.6C9.61667 70.2667 9.13333 71.2333 8.9 72.5C8.7 73.7333 8.6 75.1833 8.6 76.85V92.9C8.6 94.9333 8.76667 96.55 9.1 97.75C9.43333 98.9167 9.98333 99.75 10.75 100.25C11.5167 100.75 12.55 101 13.85 101C15.3833 101 16.4833 100.667 17.15 100C17.8167 99.3 18.2333 98.35 18.4 97.15C18.5667 95.95 18.65 94.55 18.65 92.95V89.95H24V92.95C24 95.4167 23.7 97.6 23.1 99.5C22.5 101.367 21.4667 102.833 20 103.9C18.5333 104.933 16.4667 105.45 13.8 105.45ZM39.7324 105.45C36.9991 105.45 34.8158 104.917 33.1824 103.85C31.5491 102.783 30.3824 101.267 29.6824 99.3C28.9824 97.3 28.6324 94.9667 28.6324 92.3V76.95C28.6324 74.2833 28.9824 72 29.6824 70.1C30.4158 68.1667 31.5824 66.7 33.1824 65.7C34.8158 64.6667 36.9991 64.15 39.7324 64.15C42.4658 64.15 44.6324 64.6667 46.2324 65.7C47.8324 66.7333 48.9824 68.2 49.6824 70.1C50.4158 72 50.7824 74.2833 50.7824 76.95V92.35C50.7824 94.9833 50.4158 97.2833 49.6824 99.25C48.9824 101.217 47.8324 102.75 46.2324 103.85C44.6324 104.917 42.4658 105.45 39.7324 105.45ZM39.7324 101C41.2324 101 42.3658 100.7 43.1324 100.1C43.8991 99.4667 44.4158 98.6 44.6824 97.5C44.9491 96.3667 45.0824 95.05 45.0824 93.55V75.8C45.0824 74.3 44.9491 73.0167 44.6824 71.95C44.4158 70.85 43.8991 70.0167 43.1324 69.45C42.3658 68.85 41.2324 68.55 39.7324 68.55C38.2324 68.55 37.0824 68.85 36.2824 69.45C35.5158 70.0167 34.9991 70.85 34.7324 71.95C34.4658 73.0167 34.3324 74.3 34.3324 75.8V93.55C34.3324 95.05 34.4658 96.3667 34.7324 97.5C34.9991 98.6 35.5158 99.4667 36.2824 100.1C37.0824 100.7 38.2324 101 39.7324 101ZM56.3355 105V64.5H65.1355C68.1355 64.5 70.5022 64.9667 72.2355 65.9C74.0022 66.8 75.2522 68.1667 75.9855 70C76.7522 71.8333 77.1355 74.1167 77.1355 76.85V91.75C77.1355 94.6167 76.7522 97.0333 75.9855 99C75.2522 100.967 74.0355 102.467 72.3355 103.5C70.6689 104.5 68.4189 105 65.5855 105H56.3355ZM61.9855 100.95H65.1855C67.2522 100.95 68.7189 100.55 69.5855 99.75C70.4522 98.95 70.9689 97.7833 71.1355 96.25C71.3355 94.7167 71.4355 92.8667 71.4355 90.7V77.55C71.4355 75.45 71.3022 73.75 71.0355 72.45C70.7689 71.15 70.1855 70.2 69.2855 69.6C68.3855 69 66.9689 68.7 65.0355 68.7H61.9855V100.95ZM83.0027 105V64.5H88.5527V105H83.0027ZM95.1051 105V64.5H98.9551L110.455 91.4V64.5H115.155V105H111.555L99.9051 77.35V105H95.1051ZM131.171 105.5C128.638 105.5 126.604 104.967 125.071 103.9C123.571 102.8 122.471 101.217 121.771 99.15C121.104 97.0833 120.771 94.6 120.771 91.7V78.15C120.771 75.1833 121.071 72.6667 121.671 70.6C122.304 68.5 123.404 66.9 124.971 65.8C126.571 64.7 128.788 64.15 131.621 64.15C134.154 64.15 136.188 64.5833 137.721 65.45C139.288 66.2833 140.421 67.5833 141.121 69.35C141.821 71.0833 142.171 73.2833 142.171 75.95V77.45H136.871V76.2C136.871 74.4333 136.754 73 136.521 71.9C136.288 70.7667 135.804 69.9333 135.071 69.4C134.371 68.8333 133.254 68.55 131.721 68.55C130.054 68.55 128.838 68.9333 128.071 69.7C127.338 70.4667 126.871 71.5167 126.671 72.85C126.504 74.15 126.421 75.6333 126.421 77.3V92.3C126.421 94.2333 126.554 95.85 126.821 97.15C127.121 98.45 127.671 99.4167 128.471 100.05C129.271 100.683 130.404 101 131.871 101C133.338 101 134.471 100.65 135.271 99.95C136.071 99.25 136.621 98.2167 136.921 96.85C137.221 95.4833 137.371 93.7833 137.371 91.75V88.95H132.221V84.95H142.471V105H138.921L138.371 100.35C137.838 101.85 137.004 103.083 135.871 104.05C134.738 105.017 133.171 105.5 131.171 105.5Z" fill="white"/>
<path d="M86 60L86 19" stroke="#E4E4E4" stroke-width="6"/>
<path d="M86 105L86 64" stroke="#0074E8" stroke-width="6"/>
</svg>
