<?xml version="1.0" encoding="iso-8859-1"?>
<!-- Uploaded to: SVG Repo, www.svgrepo.com, Generator: SVG Repo Mixer Tools -->
<svg fill="#000000" height="800px" width="800px" version="1.1" id="Layer_1" xmlns="http://www.w3.org/2000/svg" xmlns:xlink="http://www.w3.org/1999/xlink" 
	 viewBox="0 0 512 512" xml:space="preserve">
<g>
	<g>
		<path d="M95.221,150.452c-5.974,0-10.802,4.829-10.802,10.802c0,5.963,4.829,10.802,10.802,10.802
			c5.963,0,10.802-4.839,10.802-10.802C106.023,155.281,101.184,150.452,95.221,150.452z"/>
	</g>
</g>
<g>
	<g>
		<path d="M95.221,120.098c-22.695,0-41.156,18.461-41.156,41.156s18.461,41.156,41.156,41.156s41.156-18.461,41.156-41.156
			S117.916,120.098,95.221,120.098z M95.221,182.967c-11.98,0-21.712-9.744-21.712-21.712c0-11.98,9.733-21.712,21.712-21.712
			c11.969,0,21.712,9.733,21.712,21.712C116.933,173.223,107.19,182.967,95.221,182.967z"/>
	</g>
</g>
<g>
	<g>
		<path d="M400.651,149.221c-25.688-26.012-59.909-40.335-96.366-40.335H277.41c-5.974,0-10.802,4.839-10.802,10.802
			s4.829,10.802,10.802,10.802h26.876c30.635,0,59.401,12.044,80.995,33.919c2.106,2.139,4.893,3.208,7.68,3.208
			c2.744,0,5.487-1.037,7.594-3.111C404.799,160.315,404.843,153.466,400.651,149.221z"/>
	</g>
</g>
<g>
	<g>
		<path d="M501.198,233.488h-27.286c-5.628-88.686-79.547-159.116-169.626-159.116h-43.371c-20.114,0-39.611,3.424-58.159,10.197
			V61.518c0-13.038-10.608-23.646-23.646-23.646c-1.015,0-2.031,0.076-3.122,0.216c-34.383,3.921-65.601,20.351-88.394,46.406
			C44.926,90.792,0,142.264,0,186.51c0,20.362,9.095,35.885,23.333,46.979h-5.315c-5.963,0-10.802,4.829-10.802,10.802v50.997
			c0,5.963,4.839,10.802,10.802,10.802h112.828l-24.769,24.769c-22.857-3.964-46.546,3.392-63.106,19.952
			C29.36,364.421,21.95,382.86,21.95,401.699c0,6.168,0.799,12.379,2.43,18.482c0.994,3.738,3.91,6.654,7.648,7.648
			c6.092,1.631,12.304,2.42,18.461,2.42c18.839,0,37.278-7.399,50.9-21.021c16.549-16.549,23.905-40.238,19.962-63.095
			l40.044-40.044h238.23c-2.863,17.888-8.631,35.183-17.251,51.634c-13.719,26.195-34.07,48.394-58.861,64.186
			c-24.046,15.328-51.818,24.424-80.292,26.282c-5.369,0.356-9.646,4.591-10.068,9.949s3.165,10.197,8.404,11.375
			c13.87,3.111,27.805,4.612,41.588,4.612c69.847,0,135.837-38.574,169.28-102.426c10.727-20.492,17.64-42.809,20.427-65.612h28.345
			c5.963,0,10.802-4.839,10.802-10.802V244.29C512,238.317,507.161,233.488,501.198,233.488z M86.115,393.954
			c-11.094,11.094-26.768,16.29-42.128,14.27c-2.031-15.361,3.165-31.045,14.259-42.139s26.779-16.279,42.128-14.259
			C102.393,367.186,97.198,382.86,86.115,393.954z M171.387,284.485H28.82v-29.393l144.468,0.065l-2.625,9.322
			C168.784,271.155,169.064,278.09,171.387,284.485z M305.517,284.485h-72.601c0.27-0.734,8.372-29.328,8.372-29.328h66.131
			l-2.625,9.322C302.903,271.155,303.184,278.09,305.517,284.485z M367.035,284.485c0.27-0.734,8.383-29.328,8.383-29.328h20.773
			c2.971,0,5.401,2.42,5.401,5.401c0,0,0.076,23.354,0.054,23.927H367.035z M452.664,281.223c0,0.086-0.011,0.162-0.011,0.248
			c0.292,27.729-6.406,55.458-19.368,80.206c-23.473,44.807-65.007,75.583-112.007,86.482c4.721-2.474,9.344-5.153,13.848-8.026
			c27.967-17.824,50.921-42.852,66.39-72.385c14.14-27.016,21.485-56.042,21.82-86.277c0.011-0.605-0.14-20.913-0.14-20.913
			c0-14.896-12.12-27.005-27.005-27.005h-14.669l1.545-5.487c4.548-16.138-3.748-33.011-19.314-39.255
			c-0.627-0.248-15.847-6.146-15.847-6.146c-5.531-2.225-11.828,0.464-14.043,6.006c-2.225,5.531,0.464,11.818,6.006,14.043
			c0,0,16.344,6.503,16.862,6.622c4.623,2.409,6.978,7.745,5.542,12.865l-15.296,54.184c-1.339,4.775-5.736,8.102-10.683,8.102
			c-1.015,0-2.031-0.14-3.035-0.421c-2.852-0.81-5.228-2.679-6.676-5.271c-1.448-2.593-1.804-5.596-0.994-8.447l9.938-35.226
			c1.62-5.736-1.718-11.71-7.464-13.319c-5.747-1.62-11.709,1.718-13.33,7.453l-1.21,4.299h-66.131l1.545-5.487
			c4.558-16.138-3.748-33.011-19.303-39.255c-0.637-0.248-15.857-6.146-15.857-6.146c-5.531-2.225-11.818,0.464-14.043,6.006
			c-2.214,5.531,0.464,11.818,6.006,14.043c0,0,16.354,6.503,16.873,6.622c4.612,2.409,6.978,7.745,5.531,12.865l-15.285,54.184
			c-1.35,4.775-5.736,8.102-10.683,8.102c-1.015,0-2.031-0.14-3.035-0.421c-2.863-0.81-5.228-2.679-6.676-5.271
			c-1.458-2.592-1.804-5.596-1.005-8.447l9.938-35.226c1.62-5.736-1.718-11.71-7.464-13.319c-5.747-1.62-11.71,1.718-13.33,7.453
			l-1.21,4.299l-85.855-0.065c-56.636-1.48-71.931-29.965-71.931-46.978c0-16.171,8.89-35.82,23.776-52.574
			c14.885-16.733,32.979-27.351,48.404-28.399c2.971-0.205,5.725-1.62,7.615-3.921c19.444-23.7,46.827-38.639,77.117-42.074
			c0.076-0.011,0.14-0.022,0.205-0.022c0.227-0.032,2.43,0.875,2.43,1.998v39.331c0,3.716,1.912,7.173,5.055,9.149
			c3.143,1.977,7.086,2.204,10.435,0.583c20.124-9.69,41.75-14.604,64.273-14.604h43.371c81.815,0,148.378,66.563,148.378,148.378
			V281.223z M490.396,284.485h-16.16c0.011-0.951,0.032-29.393,0.032-29.393h16.128V284.485z"/>
	</g>
</g>
<g>
	<g>
		<path d="M95.221,150.452c-5.974,0-10.802,4.829-10.802,10.802c0,5.963,4.829,10.802,10.802,10.802
			c5.963,0,10.802-4.839,10.802-10.802C106.023,155.281,101.184,150.452,95.221,150.452z"/>
	</g>
</g>
<g id="SVGCleanerId_1">
	<g>
		<path d="M95.221,120.098c-22.695,0-41.156,18.461-41.156,41.156s18.461,41.156,41.156,41.156s41.156-18.461,41.156-41.156
			S117.916,120.098,95.221,120.098z M95.221,182.967c-11.98,0-21.712-9.744-21.712-21.712c0-11.98,9.733-21.712,21.712-21.712
			c11.969,0,21.712,9.733,21.712,21.712C116.933,173.223,107.19,182.967,95.221,182.967z"/>
	</g>
</g>
<g id="SVGCleanerId_2">
	<g>
		<path d="M400.651,149.221c-25.688-26.012-59.909-40.335-96.366-40.335H277.41c-5.974,0-10.802,4.839-10.802,10.802
			s4.829,10.802,10.802,10.802h26.876c30.635,0,59.401,12.044,80.995,33.919c2.106,2.139,4.893,3.208,7.68,3.208
			c2.744,0,5.487-1.037,7.594-3.111C404.799,160.315,404.843,153.466,400.651,149.221z"/>
	</g>
</g>
<g>
	<g>
		<path d="M400.651,149.221c-25.688-26.012-59.909-40.335-96.366-40.335H277.41c-5.974,0-10.802,4.839-10.802,10.802
			s4.829,10.802,10.802,10.802h26.876c30.635,0,59.401,12.044,80.995,33.919c2.106,2.139,4.893,3.208,7.68,3.208
			c2.744,0,5.487-1.037,7.594-3.111C404.799,160.315,404.843,153.466,400.651,149.221z"/>
	</g>
</g>
<g>
	<g>
		<path d="M95.221,150.452c-5.974,0-10.802,4.829-10.802,10.802c0,5.963,4.829,10.802,10.802,10.802
			c5.963,0,10.802-4.839,10.802-10.802C106.023,155.281,101.184,150.452,95.221,150.452z"/>
	</g>
</g>
<g>
	<g>
		<path d="M95.221,150.452c-5.974,0-10.802,4.829-10.802,10.802c0,5.963,4.829,10.802,10.802,10.802
			c5.963,0,10.802-4.839,10.802-10.802C106.023,155.281,101.184,150.452,95.221,150.452z"/>
	</g>
</g>
<g>
	<g>
		<path d="M95.221,120.098c-22.695,0-41.156,18.461-41.156,41.156s18.461,41.156,41.156,41.156s41.156-18.461,41.156-41.156
			S117.916,120.098,95.221,120.098z M95.221,182.967c-11.98,0-21.712-9.744-21.712-21.712c0-11.98,9.733-21.712,21.712-21.712
			c11.969,0,21.712,9.733,21.712,21.712C116.933,173.223,107.19,182.967,95.221,182.967z"/>
	</g>
</g>
<g>
	<g>
		<path d="M95.221,150.452c-5.974,0-10.802,4.829-10.802,10.802c0,5.963,4.829,10.802,10.802,10.802
			c5.963,0,10.802-4.839,10.802-10.802C106.023,155.281,101.184,150.452,95.221,150.452z"/>
	</g>
</g>
</svg>