<?xml version="1.0" encoding="iso-8859-1"?>
<!-- Uploaded to: SVG Repo, www.svgrepo.com, Generator: SVG Repo Mixer Tools -->
<svg fill="#000000" height="800px" width="800px" version="1.1" id="Layer_1" xmlns="http://www.w3.org/2000/svg" xmlns:xlink="http://www.w3.org/1999/xlink" 
	 viewBox="0 0 512 512" xml:space="preserve">
<g>
	<g>
		<path d="M140.282,108.31c-6.197,0-11.206,5.009-11.206,11.206c0,6.186,5.009,11.206,11.206,11.206
			c6.186,0,11.206-5.02,11.206-11.206C151.489,113.32,146.468,108.31,140.282,108.31z"/>
	</g>
</g>
<g>
	<g>
		<path d="M405.886,238.72H279.601c-6.186,0-11.206,5.02-11.206,11.206c0,6.186,5.021,11.206,11.206,11.206h115.045
			c-0.997,36.365-30.896,65.636-67.496,65.636h-72.214c-17.975,0-33.025-14.277-33.541-31.826
			c-0.19-6.175-5.334-11.038-11.543-10.859c-6.186,0.179-11.05,5.345-10.859,11.531c0.874,29.54,25.965,53.567,55.943,53.567h72.214
			c49.589,0,89.943-40.343,89.943-89.932v-9.324C417.093,243.74,412.072,238.72,405.886,238.72z"/>
	</g>
</g>
<g>
	<g>
		<path d="M495.302,163.211c-10.153-3.452-20.934-0.202-27.478,8.293l-17.729,22.996h-228.69v-58.643
			c0-36.455-27.03-66.701-62.095-71.788c3.676-6.533,10.657-10.96,18.659-10.96c6.197,0,11.206-5.009,11.206-11.206
			c0-6.186-5.009-11.206-11.206-11.206c-12.932,0-24.565,5.637-32.6,14.568c-8.024-8.932-19.656-14.568-32.588-14.568
			c-6.197,0-11.206,5.02-11.206,11.206c0,6.197,5.009,11.206,11.206,11.206c7.968,0,14.927,4.404,18.603,10.893
			c-25.898,3.586-47.459,20.878-57.108,44.299H34.65c-9.257,0-17.964,3.608-24.52,10.164C3.597,125.008,0,133.715,0,142.961
			c0,19.107,15.543,34.65,34.65,34.65h47.448c7.553,10.702,17.919,19.275,30.022,24.632c0,0,0.011,65.121,0.067,66.488
			c1.065,36.141,16.205,69.928,42.618,95.131c25.999,24.8,60.033,38.461,95.838,38.461h17.751v56.57H248.57
			c-6.197,0-11.206,5.02-11.206,11.206c0,6.186,5.009,11.206,11.206,11.206h31.031c6.197,0,11.206-5.021,11.206-11.206v-67.777
			h40.579v56.57h-19.824c-6.197,0-11.206,5.02-11.206,11.206c0,6.186,5.009,11.206,11.206,11.206h31.031
			c6.197,0,11.206-5.021,11.206-11.206v-68.673C442.52,392.461,512,317.344,512,226.292v-39.749
			C512,175.829,505.444,166.662,495.302,163.211z M34.65,155.198c-6.746,0-12.237-5.491-12.237-12.237
			c0-3.272,1.278-6.354,3.575-8.663c2.32-2.309,5.39-3.586,8.663-3.586h34.37c-0.112,1.703-0.202,3.418-0.202,5.144
			c0,6.701,0.93,13.179,2.645,19.342H34.65z M489.587,226.292c0,84.71-68.908,153.618-153.607,153.618h-85.337
			c-30.022,0-58.565-11.453-80.373-32.252c-22.11-21.113-34.785-49.376-35.681-79.633c-0.045-1.143-0.056-59.932-0.056-59.932
			c2.264,0.213,4.539,0.325,6.847,0.325c6.197,0,11.206-5.009,11.206-11.206c0-6.186-5.009-11.206-11.206-11.206
			c-27.646,0-50.149-22.491-50.149-50.149c0-27.646,22.503-50.149,50.149-50.149h7.464c27.646,0,50.149,22.503,50.149,50.149v69.85
			c0,6.197,5.009,11.206,11.206,11.206h245.399c3.485,0,6.757-1.614,8.875-4.359l21.102-27.377c0.269-0.347,0.975-1.266,2.499-0.751
			c1.513,0.516,1.513,1.681,1.513,2.118V226.292z"/>
	</g>
</g>
<g>
	<g>
		<path d="M140.282,108.31c-6.197,0-11.206,5.009-11.206,11.206c0,6.186,5.009,11.206,11.206,11.206
			c6.186,0,11.206-5.02,11.206-11.206C151.489,113.32,146.468,108.31,140.282,108.31z"/>
	</g>
</g>
<g id="SVGCleanerId_1">
	<g>
		<path d="M405.886,238.72H279.601c-6.186,0-11.206,5.02-11.206,11.206c0,6.186,5.021,11.206,11.206,11.206h115.045
			c-0.997,36.365-30.896,65.636-67.496,65.636h-72.214c-17.975,0-33.025-14.277-33.541-31.826
			c-0.19-6.175-5.334-11.038-11.543-10.859c-6.186,0.179-11.05,5.345-10.859,11.531c0.874,29.54,25.965,53.567,55.943,53.567h72.214
			c49.589,0,89.943-40.343,89.943-89.932v-9.324C417.093,243.74,412.072,238.72,405.886,238.72z"/>
	</g>
</g>
<g>
	<g>
		<path d="M405.886,238.72H279.601c-6.186,0-11.206,5.02-11.206,11.206c0,6.186,5.021,11.206,11.206,11.206h115.045
			c-0.997,36.365-30.896,65.636-67.496,65.636h-72.214c-17.975,0-33.025-14.277-33.541-31.826
			c-0.19-6.175-5.334-11.038-11.543-10.859c-6.186,0.179-11.05,5.345-10.859,11.531c0.874,29.54,25.965,53.567,55.943,53.567h72.214
			c49.589,0,89.943-40.343,89.943-89.932v-9.324C417.093,243.74,412.072,238.72,405.886,238.72z"/>
	</g>
</g>
<g>
	<g>
		<path d="M140.282,108.31c-6.197,0-11.206,5.009-11.206,11.206c0,6.186,5.009,11.206,11.206,11.206
			c6.186,0,11.206-5.02,11.206-11.206C151.489,113.32,146.468,108.31,140.282,108.31z"/>
	</g>
</g>
</svg>