<?xml version="1.0" encoding="iso-8859-1"?>
<!-- Uploaded to: SVG Repo, www.svgrepo.com, Generator: SVG Repo Mixer Tools -->
<svg fill="#000000" height="800px" width="800px" version="1.1" id="Layer_1" xmlns="http://www.w3.org/2000/svg" xmlns:xlink="http://www.w3.org/1999/xlink" 
	 viewBox="0 0 512 512" xml:space="preserve">
<g>
	<g>
		<path d="M431.958,165.704h-0.092c-0.031,0-0.051-0.01-0.071-0.01l-61.533-3.139c-5.626-0.306-10.417,4.036-10.702,9.652
			c-0.285,5.626,4.036,10.417,9.663,10.702c0,0,61.889,3.16,61.92,3.16c7.624,0.306,13.587,6.523,13.587,14.157
			c0,5.626,4.566,10.193,10.193,10.193s10.193-4.566,10.193-10.193C465.115,181.605,450.549,166.448,431.958,165.704z"/>
	</g>
</g>
<g>
	<g>
		<path d="M156.137,186.793c-5.626,0-10.182,4.556-10.182,10.172c0,5.626,4.556,10.182,10.182,10.182
			c5.616,0,10.172-4.556,10.172-10.182C166.309,191.349,161.753,186.793,156.137,186.793z"/>
	</g>
</g>
<g id="SVGCleanerId_1">
	<g>
		<path d="M156.137,186.793c-5.626,0-10.182,4.556-10.182,10.172c0,5.626,4.556,10.182,10.182,10.182
			c5.616,0,10.172-4.556,10.172-10.182C166.309,191.349,161.753,186.793,156.137,186.793z"/>
	</g>
</g>
<g>
	<g>
		<path d="M431.958,165.704h-0.092c-0.031,0-0.051-0.01-0.071-0.01l-61.533-3.139c-5.626-0.306-10.417,4.036-10.702,9.652
			c-0.285,5.626,4.036,10.417,9.663,10.702c0,0,61.889,3.16,61.92,3.16c7.624,0.306,13.587,6.523,13.587,14.157
			c0,5.626,4.566,10.193,10.193,10.193s10.193-4.566,10.193-10.193C465.115,181.605,450.549,166.448,431.958,165.704z"/>
	</g>
</g>
<g>
	<g>
		<path d="M433.885,118.859c-141.87-7.93-215.93-9.866-215.93-9.866c-62.185,0-112.923,49.933-114.238,111.812
			c-0.194,0.785-2.538,31.811-6.87,42.615c-7.104,17.684-17.949,28.661-28.315,28.661c-8.939,0-18.438-8.276-25.4-22.159
			c-1.784-3.547-5.361-5.749-9.326-5.749H10.455c-3.139,0-6.085,1.386-8.073,3.812c-1.988,2.405-2.783,5.555-2.191,8.623
			c3.985,20.487,14.015,39.129,28.244,52.522c14.779,13.903,35.98,21.251,55.193,21.251c20.069-0.591,39.017-8.246,54.938-22.271
			c13.597-11.976,24.187-28.244,30.404-46.478c0.622,0.031,4.943,0.561,11.935-1.029l10.182,89.042
			c0.591,5.147,4.943,9.041,10.121,9.041h33.095l1.243,14.973c0.438,5.28,4.852,9.347,10.152,9.347h46.662
			c5.361,0,9.805-4.148,10.172-9.499l4.383-64.56c20.406,3.292,40.454,4.943,60.523,4.943c8.052,0,16.104-0.265,24.187-0.795
			l4.862,36.734c0.673,5.066,4.994,8.857,10.111,8.857h32.545l1.814,15.33c0.612,5.127,4.964,8.99,10.121,8.99h50.728
			c5.636,0,10.192-4.566,10.192-10.193V200.226C512,156.368,477.662,121.305,433.885,118.859z M415.528,358.303l-3.578-27.071
			c7.002-0.836,14.086-1.896,21.18-3.129l3.588,30.201H415.528z M491.615,382.622L491.615,382.622h-31.475l-11.864-99.877
			c-0.662-5.586-5.738-9.581-11.324-8.919c-5.596,0.663-9.581,5.738-8.919,11.324l2.691,22.699
			c-10.498,1.845-20.956,3.262-31.179,4.189c-30.486,2.762-60.442,1.61-91.315-3.527l1.427-23.953
			c0.336-5.626-3.945-10.447-9.561-10.784c-5.606-0.336-10.447,3.945-10.784,9.561l-1.947,32.524l-4.526,66.761h-27.754
			l-8.276-89.43c-0.459-5.606-5.382-9.785-10.998-9.316c-5.606,0.459-9.775,5.382-9.316,10.998l5.973,63.428h-22.169l-10.621-92.915
			c-0.642-5.596-5.677-9.612-11.283-8.969c-1.427,0.163-2.742,0.612-3.914,1.284c-6.167,3.486-13.342,4.475-20.232,2.813
			c-0.01,0-0.02,0-0.02,0c-5.463-1.396-11.008,1.896-12.404,7.349c-4.546,17.806-14.045,33.768-26.735,44.949
			c-12.18,10.743-26.552,16.644-41.677,17.174c-0.071,0.01-0.143,0.01-0.214,0.01c-13.862,0-29.558-5.84-40.444-16.084
			c-8.144-7.665-14.545-17.643-18.612-28.845h3.465c10.61,17.827,25.278,27.907,40.923,27.907c19.366,0,37.203-15.615,47.701-41.769
			c5.341-13.281,8.001-49.301,7.858-49.984c1.101-50.83,42.778-91.845,93.863-91.845c0,0,34.971,0.642,35.042,0.652
			c5.106,0.255,9.907,1.926,14.259,4.964l9.092,6.37c12.731,8.888,20.589,22.882,21.557,38.385
			c0.958,15.503-5.096,30.374-16.624,40.791l-35.97,32.484c-4.505,4.067-10.478,4.954-15.972,2.385
			c-5.504-2.569-8.643-7.716-8.419-13.78c0.01-0.204,0.01-0.418,0.01-0.622l-0.408-17.969c-0.133-5.626-4.77-10.07-10.427-9.958
			c-5.626,0.122-10.08,4.791-9.958,10.417l0.408,17.694c-0.408,14.168,7.288,26.674,20.171,32.688
			c4.852,2.273,9.938,3.384,14.973,3.384c8.399,0,16.634-3.109,23.28-9.112l35.97-32.484c16.165-14.596,24.666-35.44,23.31-57.18
			c-1.111-17.715-8.633-34.023-21.037-46.203l135.694,6.931c0.031,0,0.071,0.01,0.112,0.01
			c32.861,1.315,58.597,28.111,58.597,61.003V382.622z"/>
	</g>
</g>
<g>
	<g>
		<path d="M156.137,186.793c-5.626,0-10.182,4.556-10.182,10.172c0,5.626,4.556,10.182,10.182,10.182
			c5.616,0,10.172-4.556,10.172-10.182C166.309,191.349,161.753,186.793,156.137,186.793z"/>
	</g>
</g>
<g>
	<g>
		<path d="M431.958,165.704h-0.092c-0.031,0-0.051-0.01-0.071-0.01l-61.533-3.139c-5.626-0.306-10.417,4.036-10.702,9.652
			c-0.285,5.626,4.036,10.417,9.663,10.702c0,0,61.889,3.16,61.92,3.16c7.624,0.306,13.587,6.523,13.587,14.157
			c0,5.626,4.566,10.193,10.193,10.193s10.193-4.566,10.193-10.193C465.115,181.605,450.549,166.448,431.958,165.704z"/>
	</g>
</g>
<g>
	<g>
		<path d="M83.627,350.383C82.832,350.577,84.483,350.383,83.627,350.383L83.627,350.383z"/>
	</g>
</g>
</svg>