<?xml version="1.0" encoding="iso-8859-1"?>
<!-- Uploaded to: SVG Repo, www.svgrepo.com, Generator: SVG Repo Mixer Tools -->
<svg fill="#000000" height="800px" width="800px" version="1.1" id="Layer_1" xmlns="http://www.w3.org/2000/svg" xmlns:xlink="http://www.w3.org/1999/xlink" 
	 viewBox="0 0 512 512" xml:space="preserve">
<g>
	<g>
		<path d="M500.969,71.92H345.613c-34.515-42.049-85.08-66.03-139.726-66.03c-7.346,0-14.605,0.43-21.576,1.269l0.011,0.011
			c-2.327,0.276-4.589,1.291-6.398,3.056c-4.357,4.258-4.423,11.251-0.165,15.597c13.071,13.369,23.749,29.099,31.382,46.097
			h-37.482C76.994,71.931,0,148.947,0,243.59c0,59.93,31.305,115.403,82.134,146.51c-2.537,39.986,13.347,79.244,43.262,106.126
			c3.089,2.769,9.773,9.883,16.05,9.883c2.438,0,4.865-0.805,6.872-2.394c3.894-3.1,5.229-8.427,3.254-13.005
			c-10.976-25.448-11.737-54.69-2.206-80.833c24.973-12.255,54.128-14.627,80.601-6.42c4.765,1.478,9.917-0.419,12.586-4.633
			c2.669-4.203,2.184-9.674-1.18-13.347c-2.769-3.033-5.626-5.857-8.714-8.637c-28.834-25.911-67.728-37.626-105.861-32.364
			c-1.997-24.179,6.618-48.05,24.036-65.478c0.022-0.011,0.033-0.022,0.044-0.044c1.776-1.776,3-2.901,4.92-4.512
			c0.739,1.82,3.552,12.818,4.28,24.709c0.243,4.092,1.511,8.052,4.953,10.292c1.831,1.191,3.927,1.787,6.023,1.787
			c1.864,0,3.717-0.463,5.405-1.412c3.927-2.206,7.556-4.589,10.843-7.148c15.244-12.023,25.172-29.143,28.205-48.039h64.96
			c0.397,2.691,0.596,5.427,0.596,8.185c0,14.362-5.449,28.007-15.344,38.431c-2.802,2.956-3.75,7.214-2.46,11.075
			c1.291,3.872,4.6,6.707,8.615,7.391c4.445,0.761,8.902,1.147,13.27,1.147c36.39,0,68.412-25.779,76.123-61.286
			c0.452-2.096,0.794-4.225,1.081-6.365c51.249-6.618,97.291-36.302,124.492-80.767C503.286,145.55,512,114.609,512,82.951
			C512,76.862,507.058,71.92,500.969,71.92z M468.738,159.713h-62.709c-5.868,0-10.998,4.434-11.384,10.303
			c-0.408,6.42,4.677,11.759,11.009,11.759h46.969c-25.558,28.989-61.639,47.333-100.644,50.344v0.022
			c-6.045,0.022-10.964,4.92-10.987,10.987c-0.022,3.971-0.452,7.92-1.291,11.759c-4.831,22.26-22.988,39.17-44.928,43.064
			c5.46-10.788,8.35-22.767,8.35-35.133c0-7.622-1.092-15.156-3.265-22.381c-1.423-4.787-5.813-7.865-10.556-7.865h-0.011
			c0,0-84.164,0.11-84.263,0.11c-5.78,0.254-10.457,4.92-10.578,10.777c-0.276,13.16-7.435,28.581-15.939,38.188
			c-3.144-15.366-8.538-29.419-9.189-30.367c-3.475-5.008-10.347-6.254-15.355-2.78h-0.011c-6.762,4.214-13.06,9.233-18.697,14.891
			c-0.011,0-0.011,0-0.011,0c0,0.011-0.011,0.011-0.011,0.011c-25.293,25.293-35.927,61.32-28.448,96.364
			c1.114,5.184,5.692,8.736,10.777,8.736c0.772,0,3.21-0.474,3.64-0.629c24.631-5.438,50.123-2.14,72.229,8.792
			c-20.109,0.684-40.074,5.923-58.01,15.575c-3.298,1.776-4.743,4.82-5.085,5.659c-7.666,18.874-10.766,39.28-9.299,59.345
			c-13.292-20.914-19.293-46.064-16.414-71.258c0.055-0.463,0.066-0.938,0.066-1.39c0.188-4.059-1.864-8.052-5.659-10.148
			c-47.476-26.385-76.972-76.531-76.972-130.857c0-82.487,67.1-149.598,149.598-149.609c0,0,54.403,0.794,57.128-0.574
			c5.449-2.714,8.902-8.174,6.971-13.943c-6.144-18.421-15.388-35.883-27.135-51.48c48.734,0.816,93.562,23.363,123.323,62.191
			c2.173,2.824,5.449,4.313,8.769,4.313l148.804-0.507C487.821,117.234,480.706,139.726,468.738,159.713z"/>
	</g>
</g>
<g>
	<g>
		<path d="M352.617,137.655c3.182-5.194,1.551-11.985-3.645-15.168c-5.194-3.179-11.986-1.55-15.168,3.646
			c-9.715,15.857-9.715,35.558,0,51.415c2.081,3.397,5.705,5.269,9.417,5.269c1.963,0,3.953-0.525,5.751-1.626
			c5.195-3.183,6.827-9.974,3.645-15.168C347.338,157.407,347.338,146.272,352.617,137.655z"/>
	</g>
</g>
<g>
	<g>
		<path d="M310.601,166.023c-5.278-8.616-5.278-19.75,0-28.368c3.181-5.193,1.55-11.984-3.645-15.167
			c-5.194-3.181-11.986-1.551-15.168,3.645c-9.715,15.857-9.715,35.558,0,51.415c2.081,3.397,5.705,5.269,9.417,5.269
			c1.964,0,3.953-0.525,5.751-1.626C312.152,178.008,313.782,171.217,310.601,166.023z"/>
	</g>
</g>
<g>
	<g>
		<circle cx="431.002" cy="125.165" r="10.368"/>
	</g>
</g>
<g>
	<g>
		<path d="M151.627,132.924c-1.672-5.859-7.772-9.257-13.634-7.584c-42.169,12.026-74.971,45.91-85.605,88.426
			c-1.478,5.91,2.115,11.9,8.025,13.378c0.899,0.225,10.83,1.828,13.377-8.024c9.003-34.819,35.646-62.695,70.254-72.565
			C149.903,144.885,153.298,138.781,151.627,132.924z"/>
	</g>
</g>
</svg>