<?xml version="1.0" encoding="iso-8859-1"?>
<!-- Uploaded to: SVG Repo, www.svgrepo.com, Generator: SVG Repo Mixer Tools -->
<svg fill="#000000" height="800px" width="800px" version="1.1" id="Layer_1" xmlns="http://www.w3.org/2000/svg" xmlns:xlink="http://www.w3.org/1999/xlink" 
	 viewBox="0 0 512 512" xml:space="preserve">
<g>
	<g>
		<path d="M419.105,33.209c-0.976-0.987-5.089-4.812-6.154-5.71C392.394,9.769,366.104,0,338.927,0H236.563
			c-24.593,0.011-48.41,4.979-70.808,14.769c0,0-26.922,11.265-51.216,34.096C89.68,72.216,74.434,106.09,74.434,106.09
			c-9.791,22.409-14.747,46.248-14.747,70.852l-0.011,283.132c0,28.629,23.285,51.925,51.925,51.925
			c6.121,0,11.088-4.967,11.088-11.088v-28.541c8.427,5.91,18.683,9.403,29.738,9.403c6.121,0,11.088-4.967,11.088-11.088v-28.13
			c8.438,5.91,18.683,9.403,29.749,9.403c6.121,0,11.088-4.967,11.088-11.088v-78.825l0.233-0.266
			c0.931-1.064,4.169-5.001,4.857-5.866h165.433c6.121,0,11.088-4.956,11.088-11.088c0-6.121-4.967-11.088-11.088-11.088h-86.409
			l10.511-10.511c2.495,0.344,5.001,0.521,7.484,0.521c14.27,0,28.241-5.611,38.553-15.922
			c13.694-13.694,19.094-33.83,14.093-52.557c-1.031-3.836-4.025-6.83-7.85-7.85c-18.717-5.001-38.852,0.399-52.557,14.093
			c-12.108,12.119-17.73,29.272-15.39,46.026l-26.212,26.201h-32.643c0.643-1.131,9.003-15.091,13.317-29.15
			c3.271-10.656,6.398-21.477,8.039-32.577c0.022-0.078,0.033-0.166,0.044-0.255c1.231-8.471,1.863-17.142,1.863-25.757V174.06
			h128.322c22.841,0,42.046-15.922,47.069-37.256h18.129c6.121,0,11.088-4.967,11.088-11.088v-12.33
			C452.324,83.082,440.527,54.608,419.105,33.209z M314.389,277.189c6.475-6.475,15.39-9.802,24.349-9.403
			c0.421,8.981-2.927,17.885-9.403,24.36c-6.475,6.464-15.379,9.824-24.349,9.392C304.577,292.568,307.914,283.665,314.389,277.189z
			 M225.53,22.985l0.011,156.585c-38.376-5.411-68.003-38.453-68.003-78.304C157.538,61.428,187.155,28.396,225.53,22.985z
			 M100.513,395.709l-0.011,91.975c-10.922-4.413-18.65-15.124-18.65-27.609l0.011-80.377c6.409-0.699,12.64-1.985,18.65-3.803
			V395.709z M182.176,427.642c-10.933-4.402-18.661-15.124-18.661-27.609v-3.326c6.509-4.003,12.74-8.438,18.661-13.25V427.642z
			 M225.541,245.999c0,7.617-0.565,15.279-1.663,22.753c-0.011,0.089-0.022,0.166-0.033,0.244
			c-1.441,9.624-3.792,19.127-6.997,28.263c0,0-5.943,16.266-15.069,31.18c-8.638,14.115-21.577,26.999-21.577,26.999
			c-5.411,5.411-11.21,10.401-17.331,14.947c-1.53-4.302-5.622-7.385-10.445-7.385c-6.121,0-11.088,4.967-11.088,11.088v83.371
			c-10.922-4.413-18.65-15.124-18.65-27.609v-63.701c30.281-17.852,50.65-50.805,50.661-88.438v-39.85
			c0-31.346-25.502-56.837-56.837-56.837c-6.132,0-11.088,4.967-11.088,11.088c0,6.121,4.956,11.088,11.088,11.088
			c9.258,0,17.963,3.604,24.505,10.146c6.542,6.553,10.157,15.257,10.157,24.516v39.85c-0.011,40.571-30.215,74.223-69.311,79.645
			V176.943c0-21.533,4.335-42.389,12.884-61.949c0,0,7.141-16.687,22.209-36.202c15.767-20.424,32.732-29.971,33.264-30.259
			c-9.403,15.379-14.858,33.419-14.858,52.735c0,52.103,39.529,95.124,90.179,100.657V245.999z M247.717,22.176h91.21
			c18.517,0,36.513,5.633,51.659,16.044c-21.81,19.349-34.772,46.88-35.57,76.407H247.717V22.176z M376.039,151.884H247.717v-15.08
			h152.028C395.565,145.708,386.506,151.884,376.039,151.884z M430.148,114.628h-52.956c0.82-24.017,11.831-46.315,30.126-61.594
			c0,0,11.498,12.929,17.12,28.452C431.468,100.901,430.148,114.628,430.148,114.628z"/>
	</g>
</g>
<g>
	<g>
		<path d="M194.262,70.841c-7.063,0-12.784,5.721-12.784,12.796c0,7.063,5.721,12.784,12.784,12.784s12.796-5.721,12.796-12.784
			C207.058,76.563,201.325,70.841,194.262,70.841z"/>
	</g>
</g>
</svg>